<?xml version="1.0" encoding="UTF-8" standalone="no"?>
<!DOCTYPE svg PUBLIC "-//W3C//DTD SVG 1.1//EN" "http://www.w3.org/Graphics/SVG/1.1/DTD/svg11.dtd">
<svg version="1.1" xmlns="http://www.w3.org/2000/svg" xmlns:xlink="http://www.w3.org/1999/xlink" preserveAspectRatio="xMidYMid meet" viewBox="0 0 900 398" width="900" height="398"><defs><path d="M0.47 307.37C161.59 397.38 452.59 392.36 452.59 392.36C452.59 392.36 739.37 397.38 900.5 307.37C870.64 307.45 721.34 307.8 452.59 308.45C181.32 307.8 30.61 307.45 0.47 307.37Z" id="d3L4JeXzuW"></path><path d="M0 247.96L0 247.96L0 306.44L900.5 306.44L900.5 247.96L900.5 202.66L0 202.66L0 247.96Z" id="bsrVoNQwP"></path><path d="M454 380.32C454 380.32 739.37 387.21 900.5 306.44C870.73 306.34 721.9 305.87 454 305.03L0.47 306.44C242.35 345.84 393.53 370.47 454 380.32Z" id="c165YC2nGY"></path><path d="M900.03 198.44C900.08 209.22 900.45 295.43 900.5 306.2C900.5 306.2 779.15 373.67 501.79 379.29C581.43 343.12 909.4 314.64 900.03 198.44Z" id="fLC7KJniq"></path><path d="M0.42 51.89C0.28 54.33 0.28 56.81 0.47 59.29C0.46 57.81 0.43 52.63 0.42 51.89Z" id="cv46EnxIV"></path><path d="M1 199.62C0.95 210.4 0.52 296.6 0.47 307.38C0.47 307.38 138.48 374.85 453.95 380.47C363.36 344.3 -9.66 315.81 1 199.62Z" id="e3bolrsqnv"></path><path d="M0 144.19L0 144.19L0 202.66L900.5 202.66L900.5 144.19L900.5 98.88L0 98.88L0 144.19Z" id="aabR9iklpR"></path><path d="M-0.5 45.31L-0.5 45.31L-0.5 103.78L900 103.78L900 45.31L900 0L-0.5 0L-0.5 45.31Z" id="a4m8owPBtq"></path></defs><g><g><g><use xlink:href="#d3L4JeXzuW" opacity="1" fill="#e6e6e6" fill-opacity="1"></use><g><use xlink:href="#d3L4JeXzuW" opacity="1" fill-opacity="0" stroke="#000000" stroke-width="1" stroke-opacity="0"></use></g></g><g><use xlink:href="#bsrVoNQwP" opacity="1" fill="#f89e12" fill-opacity="1"></use><g><use xlink:href="#bsrVoNQwP" opacity="1" fill-opacity="0" stroke="#000000" stroke-width="1" stroke-opacity="0"></use></g></g><g><use xlink:href="#c165YC2nGY" opacity="1" fill="#f89e12" fill-opacity="1"></use><g><use xlink:href="#c165YC2nGY" opacity="1" fill-opacity="0" stroke="#000000" stroke-width="1" stroke-opacity="0"></use></g></g><g><use xlink:href="#fLC7KJniq" opacity="1" fill="#ec860d" fill-opacity="1"></use><g><use xlink:href="#fLC7KJniq" opacity="1" fill-opacity="0" stroke="#000000" stroke-width="1" stroke-opacity="0"></use></g></g><g><use xlink:href="#cv46EnxIV" opacity="1" fill="#ec860d" fill-opacity="1"></use><g><use xlink:href="#cv46EnxIV" opacity="1" fill-opacity="0" stroke="#000000" stroke-width="1" stroke-opacity="0"></use></g></g><g><use xlink:href="#e3bolrsqnv" opacity="1" fill="#ec860d" fill-opacity="1"></use><g><use xlink:href="#e3bolrsqnv" opacity="1" fill-opacity="0" stroke="#000000" stroke-width="1" stroke-opacity="0"></use></g></g><g><use xlink:href="#aabR9iklpR" opacity="1" fill="#f89e12" fill-opacity="1"></use><g><use xlink:href="#aabR9iklpR" opacity="1" fill-opacity="0" stroke="#000000" stroke-width="1" stroke-opacity="0"></use></g></g><g><use xlink:href="#a4m8owPBtq" opacity="1" fill="#f89e12" fill-opacity="1"></use><g><use xlink:href="#a4m8owPBtq" opacity="1" fill-opacity="0" stroke="#000000" stroke-width="1" stroke-opacity="0"></use></g></g></g></g></svg>