<svg id="Layer_1" data-name="Layer 1" xmlns="http://www.w3.org/2000/svg" viewBox="0 0 1922 942">
    <defs>
        <style>.cls-1{fill:#e6e6e6;}.cls-2{fill:#f89e12;}.cls-3{fill:#fff;}.cls-4,.cls-5{fill:#ec860d;}.cls-4{opacity:0.35;}.cls-5{opacity:0.5;}</style>
    </defs>
    <title>down-web</title>
    <path class="cls-1" d="M197,3546.77l-965-2.27c343.9,192.1,965,181.4,965,181.4s612.11,10.71,956-181.4Z" transform="translate(769 -2784)"/>
    <polygon class="cls-2" points="0 9.39 0 336.52 0 336.52 0 758.5 1922 758.5 1922 336.52 1922 9.39 0 9.39"/>
    <path class="cls-2" d="M-768,3542.5c343.9,172.39,968,157.72,968,157.72s609.11,14.67,953-157.72l-953-3Z" transform="translate(769 -2784)"/>
    <path class="cls-1" d="M197,2791.3l-965,2.09c343.9,176.28,965,162.28,965,162.28s612.11,14,956-162.28Z" transform="translate(769 -2784)"/>
    <path class="cls-3" d="M200,2784l-968,2.9c343.9,165.27,968,151.2,968,151.2s609.11,14.06,953-151.2Z" transform="translate(769 -2784)"/>
    <path class="cls-4" d="M302,3698s870-138,850-386l1,230S894,3686,302,3698Z" transform="translate(769 -2784)"/>
    <path class="cls-5" d="M-768,3015l-.07-15.77A104.08,104.08,0,0,0-768,3015Z" transform="translate(769 -2784)"/>
    <path class="cls-4" d="M85,3699s-870-138-850-386l-1,230S-507,3687,85,3699Z" transform="translate(769 -2784)"/>
</svg>
