<?xml version="1.0" encoding="UTF-8" standalone="no"?>
<!DOCTYPE svg PUBLIC "-//W3C//DTD SVG 1.1//EN" "http://www.w3.org/Graphics/SVG/1.1/DTD/svg11.dtd">
<svg version="1.1" xmlns="http://www.w3.org/2000/svg" xmlns:xlink="http://www.w3.org/1999/xlink" preserveAspectRatio="none" viewBox="0 0 640 71" width="640" height="71"><defs><path d="M0 32.5L0 32.5L0 71.11L640 71.11L640 32.5L640 2.57L0 2.57L0 2.57L0 32.5Z" id="bXvfd86t"></path><path d="M321.66 2.43C128.87 2.85 21.76 3.08 0.33 3.13C114.85 61.83 321.66 57.16 321.66 57.16C321.66 57.16 525.49 61.83 640 3.13C597.56 3.03 491.44 2.8 321.66 2.43Z" id="c58VE3tB0x"></path><path d="M322.66 0C129.27 0.58 21.82 0.9 0.33 0.97C114.85 56 322.66 51.31 322.66 51.31C322.66 51.31 525.49 56 640 0.97C597.69 0.84 491.91 0.52 322.66 0Z" id="bYR4hPAtl"></path></defs><g><g><g><use xlink:href="#bXvfd86t" opacity="1" fill="#f89e12" fill-opacity="1"></use><g><use xlink:href="#bXvfd86t" opacity="1" fill-opacity="0" stroke="#000000" stroke-width="1" stroke-opacity="0"></use></g></g><g><use xlink:href="#c58VE3tB0x" opacity="1" fill="#e6e6e6" fill-opacity="1"></use><g><use xlink:href="#c58VE3tB0x" opacity="1" fill-opacity="0" stroke="#000000" stroke-width="1" stroke-opacity="0"></use></g></g><g><use xlink:href="#bYR4hPAtl" opacity="1" fill="#ffffff" fill-opacity="1"></use><g><use xlink:href="#bYR4hPAtl" opacity="1" fill-opacity="0" stroke="#000000" stroke-width="1" stroke-opacity="0"></use></g></g></g></g></svg>
