<?xml version="1.0" encoding="UTF-8" standalone="no"?>
<!DOCTYPE svg PUBLIC "-//W3C//DTD SVG 1.1//EN" "http://www.w3.org/Graphics/SVG/1.1/DTD/svg11.dtd">
<svg version="1.1" xmlns="http://www.w3.org/2000/svg" xmlns:xlink="http://www.w3.org/1999/xlink" preserveAspectRatio="xMidYMid meet" viewBox="0 0 640 265" width="640" height="265"><defs><path d="M321.66 205.49C128.87 205.04 21.76 204.78 0.33 204.73C114.85 268.7 321.66 265.14 321.66 265.14C321.66 265.14 525.49 268.7 640 204.73C597.56 204.83 491.44 205.09 321.66 205.49Z" id="bOnQKJLrf"></path><path d="M0 89.11L0 89.11L0 204.07L640 204.07L640 89.11L640 0L0 0L0 0L0 89.11Z" id="bGRTLKE2R"></path><path d="M1 203.22C115.51 260.63 323.33 255.74 323.33 255.74C323.33 255.74 526.16 260.63 640.67 203.22C619.51 203.16 513.73 202.82 323.33 202.23C151.42 202.76 43.98 203.09 1 203.22Z" id="b437a9WYyZ"></path><path d="M639.67 127.31C639.7 134.97 639.97 196.24 640 203.9C640 203.9 553.76 251.85 356.63 255.85C413.24 230.14 646.33 209.89 639.67 127.31Z" id="b1naNOaJgP"></path><path d="M0.31 23.17C0.18 24.91 0.19 26.67 0.33 28.42C0.33 27.37 0.31 23.69 0.31 23.17Z" id="a33RxM9g5m"></path><path d="M1.33 127.65C1.3 135.31 1.03 196.57 1 204.23C1 204.23 87.24 252.18 284.37 256.18C227.76 230.47 -5.33 210.23 1.33 127.65Z" id="b4uTO9vn9"></path><path d="" id="b1VmcSNEku"></path></defs><g><g><g><use xlink:href="#bOnQKJLrf" opacity="1" fill="#e6e6e6" fill-opacity="1"></use><g><use xlink:href="#bOnQKJLrf" opacity="1" fill-opacity="0" stroke="#000000" stroke-width="1" stroke-opacity="0"></use></g></g><g><use xlink:href="#bGRTLKE2R" opacity="1" fill="#f89e12" fill-opacity="1"></use><g><use xlink:href="#bGRTLKE2R" opacity="1" fill-opacity="0" stroke="#000000" stroke-width="1" stroke-opacity="0"></use></g></g><g><use xlink:href="#b437a9WYyZ" opacity="1" fill="#f89e12" fill-opacity="1"></use><g><use xlink:href="#b437a9WYyZ" opacity="1" fill-opacity="0" stroke="#000000" stroke-width="1" stroke-opacity="0"></use></g></g><g><use xlink:href="#b1naNOaJgP" opacity="1" fill="#ec860d" fill-opacity="1"></use><g><use xlink:href="#b1naNOaJgP" opacity="1" fill-opacity="0" stroke="#000000" stroke-width="1" stroke-opacity="0"></use></g></g><g><use xlink:href="#a33RxM9g5m" opacity="1" fill="#ec860d" fill-opacity="1"></use><g><use xlink:href="#a33RxM9g5m" opacity="1" fill-opacity="0" stroke="#000000" stroke-width="1" stroke-opacity="0"></use></g></g><g><use xlink:href="#b4uTO9vn9" opacity="1" fill="#ec860d" fill-opacity="1"></use><g><use xlink:href="#b4uTO9vn9" opacity="1" fill-opacity="0" stroke="#000000" stroke-width="1" stroke-opacity="0"></use></g></g><g><g><use xlink:href="#b1VmcSNEku" opacity="1" fill-opacity="0" stroke="#000000" stroke-width="1" stroke-opacity="1"></use></g></g></g></g></svg>